<svg viewBox="0 0 100 100" xmlns="http://www.w3.org/2000/svg">
  <circle cx="50" cy="50" r="45" fill="#02AFE5" />
  <g fill="#FFFFFF">
    <path d="M36.5,46.2c-1.3,0-2.4,1.1-2.4,2.4v16.3c0,1.3,1.1,2.4,2.4,2.4h27.1c1.3,0,2.4-1.1,2.4-2.4V48.6c0-1.3-1.1-2.4-2.4-2.4H36.5z" />
    <path d="M51,38.5c-0.7,0-1.2,0.6-1.2,1.2v4.9c0,0.7,0.6,1.2,1.2,1.2h10.6c0.7,0,1.2-0.6,1.2-1.2v-4.9c0-0.7-0.6-1.2-1.2-1.2H51z" />
    <path d="M39.4,58.8h7.4v7.4h-7.4V58.8z" />
    <path d="M39.4,49.1h7.4v7.4h-7.4V49.1z" />
    <path d="M50.1,58.8h7.4v7.4h-7.4V58.8z" />
    <path d="M50.1,49.1h7.4v7.4h-7.4V49.1z" />
  </g>
</svg>