<svg viewBox="0 0 100 100" xmlns="http://www.w3.org/2000/svg">
  <circle cx="50" cy="50" r="45" fill="#02AFE5" />
  <path fill="#FFFFFF" d="M59.5,42.5c-0.2-0.2-0.5-0.3-0.7-0.3h-4.3v-4.3c0-0.3-0.1-0.5-0.3-0.7c-0.2-0.2-0.5-0.3-0.7-0.3h-7
    c-0.3,0-0.5,0.1-0.7,0.3c-0.2,0.2-0.3,0.5-0.3,0.7v4.3h-4.3c-0.3,0-0.5,0.1-0.7,0.3c-0.2,0.2-0.3,0.5-0.3,0.7v7
    c0,0.3,0.1,0.5,0.3,0.7c0.2,0.2,0.5,0.3,0.7,0.3h4.3v4.3c0,0.3,0.1,0.5,0.3,0.7c0.2,0.2,0.5,0.3,0.7,0.3h7c0.3,0,0.5-0.1,0.7-0.3
    c0.2-0.2,0.3-0.5,0.3-0.7v-4.3h4.3c0.3,0,0.5-0.1,0.7-0.3c0.2-0.2,0.3-0.5,0.3-0.7v-7C59.8,43,59.7,42.7,59.5,42.5z"/>
</svg>