<svg xmlns="http://www.w3.org/2000/svg" xmlns:xlink="http://www.w3.org/1999/xlink" width="400" zoomAndPan="magnify" viewBox="0 0 300 119.999999" height="160" preserveAspectRatio="xMidYMid meet" version="1.0"><defs><g/><clipPath id="dde096e636"><path d="M 0 2.179688 L 111.824219 2.179688 L 111.824219 114.003906 L 0 114.003906 Z M 0 2.179688 " clip-rule="nonzero"/></clipPath><clipPath id="8c6563c41b"><path d="M 55.910156 114.003906 C 40.984375 114.003906 26.929688 108.195312 16.378906 97.625 C 5.808594 87.074219 0 73.019531 0 58.09375 C 0 43.164062 5.808594 29.109375 16.378906 18.558594 C 26.929688 7.992188 40.984375 2.179688 55.910156 2.179688 C 70.839844 2.179688 84.894531 7.992188 95.445312 18.558594 C 106.015625 29.128906 111.824219 43.164062 111.824219 58.09375 C 111.824219 73.019531 106.015625 87.074219 95.445312 97.625 C 84.894531 108.195312 70.839844 114.003906 55.910156 114.003906 Z M 55.910156 5.53125 C 41.878906 5.53125 28.671875 11.007812 18.75 20.929688 C 8.828125 30.851562 3.351562 44.058594 3.351562 58.09375 C 3.351562 72.125 8.828125 85.332031 18.75 95.253906 C 28.671875 105.175781 41.878906 110.652344 55.910156 110.652344 C 69.945312 110.652344 83.152344 105.175781 93.074219 95.253906 C 102.996094 85.332031 108.472656 72.125 108.472656 58.09375 C 108.472656 44.058594 102.996094 30.851562 93.074219 20.929688 C 83.152344 11.007812 69.945312 5.53125 55.910156 5.53125 Z M 55.910156 5.53125 " clip-rule="nonzero"/></clipPath><clipPath id="852f75c5da"><path d="M 5.753906 7.683594 L 106.253906 7.683594 L 106.253906 108 L 5.753906 108 Z M 5.753906 7.683594 " clip-rule="nonzero"/></clipPath><clipPath id="7b97d3feb1"><path d="M 19.730469 22.171875 L 92.480469 22.171875 L 92.480469 94.921875 L 19.730469 94.921875 Z M 19.730469 22.171875 " clip-rule="nonzero"/></clipPath><clipPath id="51f20c1c25"><path d="M 128 54.621094 L 247 54.621094 L 247 62.121094 L 128 62.121094 Z M 128 54.621094 " clip-rule="nonzero"/></clipPath></defs><rect x="-30" width="360" fill="#ffffff" y="-12" height="143.999998" fill-opacity="1"/><rect x="-30" width="360" fill="#ffffff" y="-12" height="143.999998" fill-opacity="1"/><g clip-path="url(#dde096e636)"><g clip-path="url(#8c6563c41b)"><path fill="#38b6ff" d="M 0 2.179688 L 111.824219 2.179688 L 111.824219 114.003906 L 0 114.003906 Z M 0 2.179688 " fill-opacity="1" fill-rule="nonzero"/></g></g><g clip-path="url(#852f75c5da)"><path fill="#38b6ff" d="M 55.910156 7.683594 C 28.199219 7.683594 5.753906 30.128906 5.753906 57.839844 C 5.753906 85.550781 28.199219 107.996094 55.910156 107.996094 C 83.621094 107.996094 106.066406 85.550781 106.066406 57.839844 C 106.066406 30.128906 83.621094 7.683594 55.910156 7.683594 Z M 55.910156 97.964844 C 33.742188 97.964844 15.785156 80.007812 15.785156 57.839844 C 15.785156 35.671875 33.742188 17.714844 55.910156 17.714844 C 78.078125 17.714844 96.035156 35.671875 96.035156 57.839844 C 96.035156 80.007812 78.078125 97.964844 55.910156 97.964844 Z M 55.910156 97.964844 " fill-opacity="1" fill-rule="nonzero"/></g><g clip-path="url(#7b97d3feb1)"><path fill="#38b6ff" d="M 56.101562 94.910156 C 36.007812 94.910156 19.730469 78.523438 19.730469 58.542969 C 19.730469 38.5625 36.007812 22.171875 56.101562 22.171875 C 76.191406 22.171875 92.46875 38.449219 92.46875 58.542969 C 92.46875 78.636719 76.082031 94.910156 56.101562 94.910156 Z M 56.101562 24.417969 C 37.242188 24.417969 21.976562 39.683594 21.976562 58.542969 C 21.976562 77.402344 37.242188 92.667969 56.101562 92.667969 C 74.957031 92.667969 90.222656 77.402344 90.222656 58.542969 C 90.222656 39.683594 74.847656 24.417969 56.101562 24.417969 Z M 56.101562 24.417969 " fill-opacity="1" fill-rule="nonzero"/></g><g clip-path="url(#51f20c1c25)"><path fill="#424d8b" d="M 242.679688 54.621094 L 132.757812 54.621094 C 130.589844 54.621094 128.832031 56.378906 128.832031 58.546875 C 128.832031 60.714844 130.589844 62.472656 132.757812 62.472656 L 242.679688 62.472656 C 244.847656 62.472656 246.605469 60.714844 246.605469 58.546875 C 246.605469 56.378906 244.847656 54.621094 242.679688 54.621094 Z M 242.679688 54.621094 " fill-opacity="1" fill-rule="nonzero"/></g><g fill="#424d8b" fill-opacity="1"><g transform="translate(30.625097, 65.089078)"><g><path d="M 7.96875 0.203125 C 6.625 0.203125 5.4375 -0.0703125 4.40625 -0.625 C 3.382812 -1.1875 2.582031 -2.023438 2 -3.140625 C 1.425781 -4.265625 1.140625 -5.644531 1.140625 -7.28125 C 1.140625 -8.925781 1.425781 -10.304688 2 -11.421875 C 2.582031 -12.546875 3.382812 -13.382812 4.40625 -13.9375 C 5.4375 -14.5 6.625 -14.78125 7.96875 -14.78125 C 9.363281 -14.78125 10.550781 -14.503906 11.53125 -13.953125 C 12.507812 -13.398438 13.207031 -12.566406 13.625 -11.453125 L 11.53125 -10.15625 L 11.28125 -10.171875 C 10.96875 -10.929688 10.539062 -11.472656 10 -11.796875 C 9.46875 -12.128906 8.789062 -12.296875 7.96875 -12.296875 C 6.75 -12.296875 5.800781 -11.894531 5.125 -11.09375 C 4.445312 -10.289062 4.109375 -9.019531 4.109375 -7.28125 C 4.109375 -5.550781 4.445312 -4.285156 5.125 -3.484375 C 5.800781 -2.679688 6.75 -2.28125 7.96875 -2.28125 C 9.851562 -2.28125 11.007812 -3.203125 11.4375 -5.046875 L 11.6875 -5.046875 L 13.8125 -3.9375 C 13.414062 -2.550781 12.734375 -1.515625 11.765625 -0.828125 C 10.804688 -0.140625 9.539062 0.203125 7.96875 0.203125 Z M 7.96875 0.203125 "/></g></g></g><g fill="#424d8b" fill-opacity="1"><g transform="translate(44.902516, 65.089078)"><g><path d="M 7.140625 -14.5625 C 9.503906 -14.5625 11.304688 -13.953125 12.546875 -12.734375 C 13.796875 -11.515625 14.421875 -9.695312 14.421875 -7.28125 C 14.421875 -4.875 13.796875 -3.054688 12.546875 -1.828125 C 11.304688 -0.609375 9.503906 0 7.140625 0 L 1.890625 0 L 1.890625 -14.5625 Z M 6.96875 -2.421875 C 8.46875 -2.421875 9.585938 -2.800781 10.328125 -3.5625 C 11.078125 -4.332031 11.453125 -5.570312 11.453125 -7.28125 C 11.453125 -8.988281 11.078125 -10.222656 10.328125 -10.984375 C 9.585938 -11.753906 8.46875 -12.140625 6.96875 -12.140625 L 4.765625 -12.140625 L 4.765625 -2.421875 Z M 6.96875 -2.421875 "/></g></g></g><g fill="#424d8b" fill-opacity="1"><g transform="translate(60.464305, 65.089078)"><g><path d="M 4.53125 0 L 1.890625 0 L 1.890625 -14.5625 L 5.65625 -14.5625 L 9.34375 -3.859375 L 9.5625 -3.859375 L 13.21875 -14.5625 L 16.90625 -14.5625 L 16.90625 0 L 14.171875 0 L 14.171875 -9.625 L 13.921875 -9.671875 L 10.546875 0 L 8.15625 0 L 4.78125 -9.671875 L 4.53125 -9.625 Z M 4.53125 0 "/></g></g></g><g fill="#424d8b" fill-opacity="1"><g transform="translate(107.660437, 46.185596)"><g><path d="M 17.53125 0.453125 C 14.570312 0.453125 11.96875 -0.15625 9.71875 -1.375 C 7.46875 -2.601562 5.703125 -4.453125 4.421875 -6.921875 C 3.148438 -9.390625 2.515625 -12.429688 2.515625 -16.046875 C 2.515625 -19.648438 3.148438 -22.6875 4.421875 -25.15625 C 5.703125 -27.625 7.46875 -29.472656 9.71875 -30.703125 C 11.96875 -31.929688 14.570312 -32.546875 17.53125 -32.546875 C 20.613281 -32.546875 23.234375 -31.941406 25.390625 -30.734375 C 27.554688 -29.523438 29.097656 -27.6875 30.015625 -25.21875 L 25.390625 -22.375 L 24.84375 -22.40625 C 24.15625 -24.070312 23.222656 -25.265625 22.046875 -25.984375 C 20.867188 -26.710938 19.363281 -27.078125 17.53125 -27.078125 C 14.863281 -27.078125 12.785156 -26.191406 11.296875 -24.421875 C 9.804688 -22.660156 9.0625 -19.867188 9.0625 -16.046875 C 9.0625 -12.222656 9.804688 -9.429688 11.296875 -7.671875 C 12.785156 -5.910156 14.863281 -5.03125 17.53125 -5.03125 C 21.695312 -5.03125 24.25 -7.054688 25.1875 -11.109375 L 25.734375 -11.109375 L 30.40625 -8.671875 C 29.53125 -5.628906 28.03125 -3.347656 25.90625 -1.828125 C 23.789062 -0.304688 21 0.453125 17.53125 0.453125 Z M 17.53125 0.453125 "/></g></g></g><g fill="#424d8b" fill-opacity="1"><g transform="translate(139.115692, 46.185596)"><g><path d="M 10.515625 -14.09375 L 10.515625 -5.3125 L 25.828125 -5.3125 L 25.828125 0 L 4.171875 0 L 4.171875 -32.078125 L 25.46875 -32.078125 L 25.46875 -26.765625 L 10.515625 -26.765625 L 10.515625 -19.265625 L 23.59375 -19.265625 L 23.59375 -14.09375 Z M 10.515625 -14.09375 "/></g></g></g><g fill="#424d8b" fill-opacity="1"><g transform="translate(166.688395, 46.185596)"><g><path d="M 10.3125 0 L 4.171875 0 L 4.171875 -32.078125 L 11.4375 -32.078125 L 24.3125 -11.40625 L 24.875 -11.5 L 24.875 -32.078125 L 30.984375 -32.078125 L 30.984375 0 L 24.484375 0 L 10.859375 -22.078125 L 10.3125 -21.984375 Z M 10.3125 0 "/></g></g></g><g fill="#424d8b" fill-opacity="1"><g transform="translate(201.850721, 46.185596)"><g><path d="M 25.71875 -32.078125 L 25.71875 -26.75 L 16.453125 -26.75 L 16.453125 0 L 10.140625 0 L 10.140625 -26.75 L 0.875 -26.75 L 0.875 -32.078125 Z M 25.71875 -32.078125 "/></g></g></g><g fill="#424d8b" fill-opacity="1"><g transform="translate(228.436334, 46.185596)"><g><path d="M 4.171875 0 L 4.171875 -32.078125 L 17.046875 -32.078125 C 20.367188 -32.078125 22.875 -31.3125 24.5625 -29.78125 C 26.25 -28.257812 27.09375 -26.148438 27.09375 -23.453125 C 27.09375 -21.503906 26.597656 -19.910156 25.609375 -18.671875 C 24.628906 -17.429688 23.160156 -16.476562 21.203125 -15.8125 L 21.203125 -15.359375 C 22.203125 -14.921875 23.015625 -14.269531 23.640625 -13.40625 C 24.265625 -12.539062 24.851562 -11.257812 25.40625 -9.5625 L 28.609375 0 L 22.09375 0 L 18.953125 -9.59375 C 18.628906 -10.550781 18.265625 -11.296875 17.859375 -11.828125 C 17.460938 -12.367188 16.953125 -12.757812 16.328125 -13 C 15.710938 -13.238281 14.90625 -13.359375 13.90625 -13.359375 L 10.515625 -13.359375 L 10.515625 0 Z M 16.28125 -18.390625 C 19.351562 -18.390625 20.890625 -19.820312 20.890625 -22.6875 C 20.890625 -25.59375 19.351562 -27.046875 16.28125 -27.046875 L 10.515625 -27.046875 L 10.515625 -18.390625 Z M 16.28125 -18.390625 "/></g></g></g><g fill="#424d8b" fill-opacity="1"><g transform="translate(258.421923, 46.185596)"><g><path d="M 10.515625 -14.09375 L 10.515625 -5.3125 L 25.828125 -5.3125 L 25.828125 0 L 4.171875 0 L 4.171875 -32.078125 L 25.46875 -32.078125 L 25.46875 -26.765625 L 10.515625 -26.765625 L 10.515625 -19.265625 L 23.59375 -19.265625 L 23.59375 -14.09375 Z M 10.515625 -14.09375 "/></g></g></g><g fill="#424d8b" fill-opacity="1"><g transform="translate(179.675109, 73.058261)"><g><path d="M 7.359375 -9.625 L 7.359375 -8.03125 L 3.15625 -8.03125 L 3.15625 -5.484375 L 6.96875 -5.484375 L 6.96875 -3.90625 L 3.15625 -3.90625 L 3.15625 0 L 1.25 0 L 1.25 -9.625 Z M 7.359375 -9.625 "/></g></g></g><g fill="#424d8b" fill-opacity="1"><g transform="translate(187.457374, 73.058261)"><g><path d="M 5.25 0.140625 C 4.363281 0.140625 3.582031 -0.0351562 2.90625 -0.390625 C 2.238281 -0.753906 1.710938 -1.304688 1.328125 -2.046875 C 0.941406 -2.785156 0.75 -3.707031 0.75 -4.8125 C 0.75 -5.914062 0.941406 -6.835938 1.328125 -7.578125 C 1.710938 -8.316406 2.238281 -8.863281 2.90625 -9.21875 C 3.582031 -9.582031 4.363281 -9.765625 5.25 -9.765625 C 6.132812 -9.765625 6.910156 -9.582031 7.578125 -9.21875 C 8.242188 -8.863281 8.765625 -8.316406 9.140625 -7.578125 C 9.523438 -6.835938 9.71875 -5.914062 9.71875 -4.8125 C 9.71875 -3.707031 9.523438 -2.785156 9.140625 -2.046875 C 8.765625 -1.304688 8.242188 -0.753906 7.578125 -0.390625 C 6.910156 -0.0351562 6.132812 0.140625 5.25 0.140625 Z M 5.25 -1.515625 C 6.0625 -1.515625 6.679688 -1.773438 7.109375 -2.296875 C 7.546875 -2.828125 7.765625 -3.664062 7.765625 -4.8125 C 7.765625 -5.957031 7.546875 -6.796875 7.109375 -7.328125 C 6.679688 -7.859375 6.0625 -8.125 5.25 -8.125 C 4.425781 -8.125 3.796875 -7.859375 3.359375 -7.328125 C 2.929688 -6.796875 2.71875 -5.957031 2.71875 -4.8125 C 2.71875 -3.664062 2.929688 -2.828125 3.359375 -2.296875 C 3.796875 -1.773438 4.425781 -1.515625 5.25 -1.515625 Z M 5.25 -1.515625 "/></g></g></g><g fill="#424d8b" fill-opacity="1"><g transform="translate(197.945654, 73.058261)"><g><path d="M 1.25 0 L 1.25 -9.625 L 5.109375 -9.625 C 6.109375 -9.625 6.859375 -9.394531 7.359375 -8.9375 C 7.867188 -8.476562 8.125 -7.84375 8.125 -7.03125 C 8.125 -6.445312 7.976562 -5.96875 7.6875 -5.59375 C 7.394531 -5.226562 6.953125 -4.945312 6.359375 -4.75 L 6.359375 -4.609375 C 6.660156 -4.472656 6.90625 -4.273438 7.09375 -4.015625 C 7.28125 -3.765625 7.457031 -3.382812 7.625 -2.875 L 8.578125 0 L 6.625 0 L 5.6875 -2.875 C 5.59375 -3.164062 5.484375 -3.390625 5.359375 -3.546875 C 5.242188 -3.710938 5.09375 -3.832031 4.90625 -3.90625 C 4.71875 -3.976562 4.472656 -4.015625 4.171875 -4.015625 L 3.15625 -4.015625 L 3.15625 0 Z M 4.890625 -5.515625 C 5.804688 -5.515625 6.265625 -5.945312 6.265625 -6.8125 C 6.265625 -7.6875 5.804688 -8.125 4.890625 -8.125 L 3.15625 -8.125 L 3.15625 -5.515625 Z M 4.890625 -5.515625 "/></g></g></g><g fill="#424d8b" fill-opacity="1"><g transform="translate(127.718023, 84.497998)"><g><path d="M 4.125 -8.4375 C 5.5 -8.4375 6.546875 -8.082031 7.265625 -7.375 C 7.984375 -6.664062 8.34375 -5.613281 8.34375 -4.21875 C 8.34375 -2.820312 7.984375 -1.769531 7.265625 -1.0625 C 6.546875 -0.351562 5.5 0 4.125 0 L 1.09375 0 L 1.09375 -8.4375 Z M 4.03125 -1.40625 C 4.894531 -1.40625 5.539062 -1.625 5.96875 -2.0625 C 6.40625 -2.507812 6.625 -3.226562 6.625 -4.21875 C 6.625 -5.207031 6.40625 -5.921875 5.96875 -6.359375 C 5.539062 -6.804688 4.894531 -7.03125 4.03125 -7.03125 L 2.765625 -7.03125 L 2.765625 -1.40625 Z M 4.03125 -1.40625 "/></g></g><g transform="translate(136.727812, 84.497998)"><g><path d="M 2.765625 0 L 1.09375 0 L 1.09375 -8.4375 L 2.765625 -8.4375 Z M 2.765625 0 "/></g></g><g transform="translate(140.589973, 84.497998)"><g><path d="M 8.09375 0 L 6.34375 0 L 5.703125 -1.9375 L 2.46875 -1.9375 L 1.84375 0 L 0.125 0 L 3.046875 -8.4375 L 5.171875 -8.4375 Z M 4.015625 -6.671875 L 2.921875 -3.34375 L 5.25 -3.34375 L 4.15625 -6.671875 Z M 4.015625 -6.671875 "/></g></g><g transform="translate(148.804272, 84.497998)"><g><path d="M 1.09375 0 L 1.09375 -8.4375 L 4.6875 -8.4375 C 5.207031 -8.4375 5.644531 -8.351562 6 -8.1875 C 6.363281 -8.019531 6.640625 -7.785156 6.828125 -7.484375 C 7.015625 -7.179688 7.109375 -6.828125 7.109375 -6.421875 C 7.109375 -6.046875 7.015625 -5.710938 6.828125 -5.421875 C 6.648438 -5.140625 6.394531 -4.914062 6.0625 -4.75 L 6.0625 -4.625 C 6.59375 -4.488281 7 -4.238281 7.28125 -3.875 C 7.570312 -3.507812 7.71875 -3.0625 7.71875 -2.53125 C 7.71875 -1.71875 7.472656 -1.09375 6.984375 -0.65625 C 6.503906 -0.21875 5.785156 0 4.828125 0 Z M 4.34375 -5.0625 C 5.125 -5.0625 5.515625 -5.414062 5.515625 -6.125 C 5.515625 -6.476562 5.414062 -6.742188 5.21875 -6.921875 C 5.03125 -7.097656 4.738281 -7.1875 4.34375 -7.1875 L 2.765625 -7.1875 L 2.765625 -5.0625 Z M 4.65625 -1.328125 C 5.570312 -1.328125 6.03125 -1.742188 6.03125 -2.578125 C 6.03125 -3.410156 5.570312 -3.828125 4.65625 -3.828125 L 2.765625 -3.828125 L 2.765625 -1.328125 Z M 4.65625 -1.328125 "/></g></g><g transform="translate(157.047393, 84.497998)"><g><path d="M 2.765625 -3.703125 L 2.765625 -1.390625 L 6.78125 -1.390625 L 6.78125 0 L 1.09375 0 L 1.09375 -8.4375 L 6.703125 -8.4375 L 6.703125 -7.03125 L 2.765625 -7.03125 L 2.765625 -5.0625 L 6.203125 -5.0625 L 6.203125 -3.703125 Z M 2.765625 -3.703125 "/></g></g><g transform="translate(164.293269, 84.497998)"><g><path d="M 6.765625 -8.4375 L 6.765625 -7.03125 L 4.328125 -7.03125 L 4.328125 0 L 2.671875 0 L 2.671875 -7.03125 L 0.234375 -7.03125 L 0.234375 -8.4375 Z M 6.765625 -8.4375 "/></g></g><g transform="translate(171.279747, 84.497998)"><g><path d="M 2.765625 -3.703125 L 2.765625 -1.390625 L 6.78125 -1.390625 L 6.78125 0 L 1.09375 0 L 1.09375 -8.4375 L 6.703125 -8.4375 L 6.703125 -7.03125 L 2.765625 -7.03125 L 2.765625 -5.0625 L 6.203125 -5.0625 L 6.203125 -3.703125 Z M 2.765625 -3.703125 "/></g></g><g transform="translate(178.525623, 84.497998)"><g><path d="M 3.734375 0.125 C 3.148438 0.125 2.628906 0.0507812 2.171875 -0.09375 C 1.722656 -0.238281 1.34375 -0.425781 1.03125 -0.65625 C 0.726562 -0.894531 0.5 -1.15625 0.34375 -1.4375 L 1.25 -2.5625 L 1.40625 -2.5625 C 1.65625 -2.175781 1.972656 -1.875 2.359375 -1.65625 C 2.753906 -1.4375 3.210938 -1.328125 3.734375 -1.328125 C 4.179688 -1.328125 4.519531 -1.421875 4.75 -1.609375 C 4.976562 -1.796875 5.09375 -2.050781 5.09375 -2.375 C 5.09375 -2.582031 5.054688 -2.75 4.984375 -2.875 C 4.910156 -3.007812 4.785156 -3.125 4.609375 -3.21875 C 4.441406 -3.320312 4.210938 -3.410156 3.921875 -3.484375 L 2.84375 -3.71875 C 2.082031 -3.894531 1.515625 -4.179688 1.140625 -4.578125 C 0.773438 -4.984375 0.59375 -5.507812 0.59375 -6.15625 C 0.59375 -6.632812 0.710938 -7.050781 0.953125 -7.40625 C 1.191406 -7.769531 1.535156 -8.050781 1.984375 -8.25 C 2.441406 -8.445312 2.988281 -8.546875 3.625 -8.546875 C 4.28125 -8.546875 4.835938 -8.460938 5.296875 -8.296875 C 5.765625 -8.128906 6.15625 -7.867188 6.46875 -7.515625 L 5.640625 -6.375 L 5.5 -6.375 C 5.257812 -6.625 4.984375 -6.8125 4.671875 -6.9375 C 4.367188 -7.0625 4.019531 -7.125 3.625 -7.125 C 3.164062 -7.125 2.816406 -7.039062 2.578125 -6.875 C 2.335938 -6.71875 2.21875 -6.5 2.21875 -6.21875 C 2.21875 -5.945312 2.300781 -5.734375 2.46875 -5.578125 C 2.644531 -5.421875 2.9375 -5.300781 3.34375 -5.21875 L 4.453125 -4.984375 C 5.273438 -4.804688 5.867188 -4.507812 6.234375 -4.09375 C 6.597656 -3.6875 6.78125 -3.148438 6.78125 -2.484375 C 6.78125 -1.960938 6.664062 -1.503906 6.4375 -1.109375 C 6.21875 -0.722656 5.878906 -0.421875 5.421875 -0.203125 C 4.960938 0.015625 4.398438 0.125 3.734375 0.125 Z M 3.734375 0.125 "/></g></g><g transform="translate(185.765735, 84.497998)"><g/></g><g transform="translate(188.54995, 84.497998)"><g><path d="M 2.625 0 L 1.09375 0 L 1.09375 -8.4375 L 3.28125 -8.4375 L 5.40625 -2.234375 L 5.53125 -2.234375 L 7.65625 -8.4375 L 9.78125 -8.4375 L 9.78125 0 L 8.203125 0 L 8.203125 -5.578125 L 8.0625 -5.59375 L 6.109375 0 L 4.71875 0 L 2.765625 -5.59375 L 2.625 -5.578125 Z M 2.625 0 "/></g></g><g transform="translate(199.427411, 84.497998)"><g><path d="M 8.09375 0 L 6.34375 0 L 5.703125 -1.9375 L 2.46875 -1.9375 L 1.84375 0 L 0.125 0 L 3.046875 -8.4375 L 5.171875 -8.4375 Z M 4.015625 -6.671875 L 2.921875 -3.34375 L 5.25 -3.34375 L 4.15625 -6.671875 Z M 4.015625 -6.671875 "/></g></g><g transform="translate(207.641709, 84.497998)"><g><path d="M 2.703125 0 L 1.09375 0 L 1.09375 -8.4375 L 3 -8.4375 L 6.390625 -3 L 6.546875 -3.015625 L 6.546875 -8.4375 L 8.140625 -8.4375 L 8.140625 0 L 6.4375 0 L 2.859375 -5.796875 L 2.703125 -5.78125 Z M 2.703125 0 "/></g></g><g transform="translate(216.882075, 84.497998)"><g><path d="M 8.09375 0 L 6.34375 0 L 5.703125 -1.9375 L 2.46875 -1.9375 L 1.84375 0 L 0.125 0 L 3.046875 -8.4375 L 5.171875 -8.4375 Z M 4.015625 -6.671875 L 2.921875 -3.34375 L 5.25 -3.34375 L 4.15625 -6.671875 Z M 4.015625 -6.671875 "/></g></g><g transform="translate(225.096374, 84.497998)"><g><path d="M 4.09375 0.125 C 3.394531 0.125 2.785156 -0.0351562 2.265625 -0.359375 C 1.753906 -0.679688 1.359375 -1.164062 1.078125 -1.8125 C 0.796875 -2.457031 0.65625 -3.257812 0.65625 -4.21875 C 0.65625 -5.175781 0.820312 -5.976562 1.15625 -6.625 C 1.5 -7.28125 1.96875 -7.765625 2.5625 -8.078125 C 3.15625 -8.390625 3.84375 -8.546875 4.625 -8.546875 C 5.4375 -8.546875 6.125 -8.394531 6.6875 -8.09375 C 7.257812 -7.800781 7.660156 -7.359375 7.890625 -6.765625 L 6.671875 -6.03125 L 6.53125 -6.03125 C 6.351562 -6.40625 6.109375 -6.679688 5.796875 -6.859375 C 5.484375 -7.035156 5.09375 -7.125 4.625 -7.125 C 3.894531 -7.125 3.335938 -6.890625 2.953125 -6.421875 C 2.566406 -5.960938 2.375 -5.226562 2.375 -4.21875 C 2.375 -3.195312 2.550781 -2.453125 2.90625 -1.984375 C 3.269531 -1.523438 3.804688 -1.296875 4.515625 -1.296875 C 5.117188 -1.296875 5.566406 -1.429688 5.859375 -1.703125 C 6.148438 -1.984375 6.296875 -2.394531 6.296875 -2.9375 L 6.296875 -3.296875 L 4.296875 -3.296875 L 4.296875 -4.65625 L 7.953125 -4.65625 L 7.953125 0 L 6.359375 0 L 6.359375 -1.125 L 6.234375 -1.140625 C 6.054688 -0.742188 5.789062 -0.429688 5.4375 -0.203125 C 5.09375 0.015625 4.644531 0.125 4.09375 0.125 Z M 4.09375 0.125 "/></g></g><g transform="translate(233.887115, 84.497998)"><g><path d="M 2.765625 -3.703125 L 2.765625 -1.390625 L 6.78125 -1.390625 L 6.78125 0 L 1.09375 0 L 1.09375 -8.4375 L 6.703125 -8.4375 L 6.703125 -7.03125 L 2.765625 -7.03125 L 2.765625 -5.0625 L 6.203125 -5.0625 L 6.203125 -3.703125 Z M 2.765625 -3.703125 "/></g></g><g transform="translate(241.132991, 84.497998)"><g><path d="M 2.625 0 L 1.09375 0 L 1.09375 -8.4375 L 3.28125 -8.4375 L 5.40625 -2.234375 L 5.53125 -2.234375 L 7.65625 -8.4375 L 9.78125 -8.4375 L 9.78125 0 L 8.203125 0 L 8.203125 -5.578125 L 8.0625 -5.59375 L 6.109375 0 L 4.71875 0 L 2.765625 -5.59375 L 2.625 -5.578125 Z M 2.625 0 "/></g></g><g transform="translate(252.010452, 84.497998)"><g><path d="M 2.765625 -3.703125 L 2.765625 -1.390625 L 6.78125 -1.390625 L 6.78125 0 L 1.09375 0 L 1.09375 -8.4375 L 6.703125 -8.4375 L 6.703125 -7.03125 L 2.765625 -7.03125 L 2.765625 -5.0625 L 6.203125 -5.0625 L 6.203125 -3.703125 Z M 2.765625 -3.703125 "/></g></g><g transform="translate(259.256328, 84.497998)"><g><path d="M 2.703125 0 L 1.09375 0 L 1.09375 -8.4375 L 3 -8.4375 L 6.390625 -3 L 6.546875 -3.015625 L 6.546875 -8.4375 L 8.140625 -8.4375 L 8.140625 0 L 6.4375 0 L 2.859375 -5.796875 L 2.703125 -5.78125 Z M 2.703125 0 "/></g></g><g transform="translate(268.496694, 84.497998)"><g><path d="M 6.765625 -8.4375 L 6.765625 -7.03125 L 4.328125 -7.03125 L 4.328125 0 L 2.671875 0 L 2.671875 -7.03125 L 0.234375 -7.03125 L 0.234375 -8.4375 Z M 6.765625 -8.4375 "/></g></g></g><g fill="#424d8b" fill-opacity="1"><g transform="translate(107.813246, 113.918243)"><g><path d="M 20.109375 -16.171875 L 20.109375 -25.9375 L 25.21875 -25.9375 L 25.21875 0 L 20.109375 0 L 20.109375 -11.8125 L 8.5 -11.8125 L 8.5 0 L 3.375 0 L 3.375 -25.9375 L 8.5 -25.9375 L 8.5 -16.171875 Z M 20.109375 -16.171875 "/></g></g></g><g fill="#424d8b" fill-opacity="1"><g transform="translate(136.419003, 113.918243)"><g><path d="M 14.140625 0.375 C 11.765625 0.375 9.664062 -0.109375 7.84375 -1.078125 C 6.03125 -2.046875 4.609375 -3.523438 3.578125 -5.515625 C 2.554688 -7.515625 2.046875 -10 2.046875 -12.96875 C 2.046875 -15.9375 2.554688 -18.414062 3.578125 -20.40625 C 4.609375 -22.394531 6.03125 -23.875 7.84375 -24.84375 C 9.664062 -25.820312 11.765625 -26.3125 14.140625 -26.3125 C 16.515625 -26.3125 18.601562 -25.828125 20.40625 -24.859375 C 22.21875 -23.898438 23.632812 -22.421875 24.65625 -20.421875 C 25.6875 -18.421875 26.203125 -15.9375 26.203125 -12.96875 C 26.203125 -10 25.6875 -7.515625 24.65625 -5.515625 C 23.632812 -3.515625 22.21875 -2.03125 20.40625 -1.0625 C 18.601562 -0.101562 16.515625 0.375 14.140625 0.375 Z M 14.140625 -4.078125 C 16.335938 -4.078125 18.015625 -4.78125 19.171875 -6.1875 C 20.328125 -7.601562 20.90625 -9.863281 20.90625 -12.96875 C 20.90625 -16.0625 20.328125 -18.316406 19.171875 -19.734375 C 18.015625 -21.160156 16.335938 -21.875 14.140625 -21.875 C 11.929688 -21.875 10.242188 -21.160156 9.078125 -19.734375 C 7.910156 -18.316406 7.328125 -16.0625 7.328125 -12.96875 C 7.328125 -9.863281 7.910156 -7.601562 9.078125 -6.1875 C 10.242188 -4.78125 11.929688 -4.078125 14.140625 -4.078125 Z M 14.140625 -4.078125 "/></g></g></g><g fill="#424d8b" fill-opacity="1"><g transform="translate(164.67007, 113.918243)"><g><path d="M 11.5 0.375 C 9.695312 0.375 8.09375 0.15625 6.6875 -0.28125 C 5.289062 -0.726562 4.125 -1.3125 3.1875 -2.03125 C 2.257812 -2.757812 1.546875 -3.554688 1.046875 -4.421875 L 3.859375 -7.859375 L 4.3125 -7.859375 C 5.09375 -6.703125 6.082031 -5.78125 7.28125 -5.09375 C 8.476562 -4.40625 9.882812 -4.0625 11.5 -4.0625 C 12.863281 -4.0625 13.894531 -4.347656 14.59375 -4.921875 C 15.289062 -5.503906 15.640625 -6.304688 15.640625 -7.328125 C 15.640625 -7.941406 15.523438 -8.453125 15.296875 -8.859375 C 15.078125 -9.273438 14.707031 -9.628906 14.1875 -9.921875 C 13.664062 -10.222656 12.960938 -10.484375 12.078125 -10.703125 L 8.75 -11.453125 C 6.414062 -11.984375 4.675781 -12.867188 3.53125 -14.109375 C 2.394531 -15.347656 1.828125 -16.953125 1.828125 -18.921875 C 1.828125 -20.390625 2.191406 -21.679688 2.921875 -22.796875 C 3.660156 -23.910156 4.726562 -24.773438 6.125 -25.390625 C 7.53125 -26.003906 9.207031 -26.3125 11.15625 -26.3125 C 13.15625 -26.3125 14.867188 -26.046875 16.296875 -25.515625 C 17.722656 -24.992188 18.925781 -24.1875 19.90625 -23.09375 L 17.359375 -19.625 L 16.921875 -19.625 C 16.191406 -20.382812 15.351562 -20.957031 14.40625 -21.34375 C 13.457031 -21.726562 12.375 -21.921875 11.15625 -21.921875 C 9.75 -21.921875 8.675781 -21.671875 7.9375 -21.171875 C 7.207031 -20.679688 6.84375 -20 6.84375 -19.125 C 6.84375 -18.300781 7.097656 -17.644531 7.609375 -17.15625 C 8.128906 -16.675781 9.019531 -16.300781 10.28125 -16.03125 L 13.6875 -15.328125 C 16.207031 -14.796875 18.035156 -13.894531 19.171875 -12.625 C 20.304688 -11.351562 20.875 -9.691406 20.875 -7.640625 C 20.875 -6.023438 20.523438 -4.613281 19.828125 -3.40625 C 19.128906 -2.207031 18.078125 -1.273438 16.671875 -0.609375 C 15.265625 0.046875 13.539062 0.375 11.5 0.375 Z M 11.5 0.375 "/></g></g></g><g fill="#424d8b" fill-opacity="1"><g transform="translate(186.944609, 113.918243)"><g><path d="M 13.390625 -25.9375 C 15.242188 -25.9375 16.832031 -25.59375 18.15625 -24.90625 C 19.476562 -24.226562 20.472656 -23.273438 21.140625 -22.046875 C 21.816406 -20.828125 22.15625 -19.410156 22.15625 -17.796875 C 22.15625 -16.171875 21.816406 -14.75 21.140625 -13.53125 C 20.472656 -12.3125 19.476562 -11.363281 18.15625 -10.6875 C 16.832031 -10.007812 15.242188 -9.671875 13.390625 -9.671875 L 8.5 -9.671875 L 8.5 0 L 3.375 0 L 3.375 -25.9375 Z M 12.71875 -13.734375 C 15.570312 -13.734375 17 -15.085938 17 -17.796875 C 17 -20.515625 15.570312 -21.875 12.71875 -21.875 L 8.5 -21.875 L 8.5 -13.734375 Z M 12.71875 -13.734375 "/></g></g></g><g fill="#424d8b" fill-opacity="1"><g transform="translate(210.637909, 113.918243)"><g><path d="M 8.5 0 L 3.375 0 L 3.375 -25.9375 L 8.5 -25.9375 Z M 8.5 0 "/></g></g></g><g fill="#424d8b" fill-opacity="1"><g transform="translate(222.520027, 113.918243)"><g><path d="M 20.796875 -25.9375 L 20.796875 -21.625 L 13.296875 -21.625 L 13.296875 0 L 8.1875 0 L 8.1875 -21.625 L 0.703125 -21.625 L 0.703125 -25.9375 Z M 20.796875 -25.9375 "/></g></g></g><g fill="#424d8b" fill-opacity="1"><g transform="translate(244.014248, 113.918243)"><g><path d="M 24.890625 0 L 19.5 0 L 17.546875 -5.984375 L 7.609375 -5.984375 L 5.65625 0 L 0.390625 0 L 9.34375 -25.9375 L 15.921875 -25.9375 Z M 12.328125 -20.515625 L 9 -10.28125 L 16.125 -10.28125 L 12.765625 -20.515625 Z M 12.328125 -20.515625 "/></g></g></g><g fill="#424d8b" fill-opacity="1"><g transform="translate(269.285918, 113.918243)"><g><path d="M 8.5 -25.9375 L 8.5 -4.296875 L 20.15625 -4.296875 L 20.15625 0 L 3.375 0 L 3.375 -25.9375 Z M 8.5 -25.9375 "/></g></g></g></svg>